<svg xmlns="http://www.w3.org/2000/svg" viewBox="0 0 32 32" aria-hidden="true" role="presentation" focusable="false" style="display: block; height: 24px; width: 24px; fill: currentcolor;"><path d="M17 1v4.03l4.03-2.32 1 1.73L17 7.34v6.93l6-3.47V5h2v4.65l3.49-2.02 1 1.74L26 11.38l4.03 2.33-1 1.73-5.03-2.9L18 16l6 3.46 5.03-2.9 1 1.73L26 20.62l3.49 2.01-1 1.74L25 22.35V27h-2v-5.8l-6-3.47v6.93l5.03 2.9-1 1.73L17 26.97V31h-2v-4.03l-4.03 2.32-1-1.73 5.03-2.9v-6.93L9 21.2V27H7v-4.65l-3.49 2.02-1-1.74L6 20.62l-4.03-2.33 1-1.73L8 19.46 14 16l-6-3.46-5.03 2.9-1-1.73L6 11.38 2.51 9.37l1-1.74L7 9.65V5h2v5.8l6 3.47V7.34l-5.03-2.9 1-1.73L15 5.03V1z"></path></svg>
