<svg xmlns="http://www.w3.org/2000/svg" viewBox="0 0 32 32" aria-hidden="true" role="presentation" focusable="false" style="display: block; height: 24px; width: 24px; fill: currentcolor;"><path d="M19.59 2a2 2 0 0 1 1.28.47l.13.12L29.41 11a2 2 0 0 1 .58 1.24l.01.17V25a5 5 0 0 1-4.78 5H4a2 2 0 0 1-2-1.85V7a5 5 0 0 1 4.78-5H7zM7 4a3 3 0 0 0-3 2.82V21a3 3 0 0 0 2.82 3H26v2H7a4.98 4.98 0 0 1-3-1v3h21a3 3 0 0 0 3-2.82V22H6v-2h22v-6h-5a5 5 0 0 1-5-4.78V4zm20.59 8L20 4.42V9a3 3 0 0 0 2.82 3H23z"></path></svg>
