<svg xmlns="http://www.w3.org/2000/svg" viewBox="0 0 32 32" aria-hidden="true" role="presentation" focusable="false" style="display: block; height: 24px; width: 24px; fill: currentcolor;"><path d="M18 2a3 3 0 0 1 3 2.82V15h2a3 3 0 0 1 3 2.82V27a3 3 0 0 1-2.82 3H14a3 3 0 0 1-3-2.82V17H9a3 3 0 0 1-3-2.82V5a3 3 0 0 1 2.82-3H18zm5 15h-9a1 1 0 0 0-1 .88V27a1 1 0 0 0 .88 1H23a1 1 0 0 0 1-.88V18a1 1 0 0 0-.88-1H23zm-7 7a1 1 0 1 1 0 2 1 1 0 0 1 0-2zm5 0a1 1 0 1 1 0 2 1 1 0 0 1 0-2zm-5-5a1 1 0 1 1 0 2 1 1 0 0 1 0-2zm5 0a1 1 0 1 1 0 2 1 1 0 0 1 0-2zM18 4H9a1 1 0 0 0-1 .88V14a1 1 0 0 0 .88 1H18a1 1 0 0 0 1-.88V5a1 1 0 0 0-.88-1H18zm-2 7a1 1 0 1 1 0 2 1 1 0 0 1 0-2zm-5-5a1 1 0 1 1 0 2 1 1 0 0 1 0-2z"></path></svg>
