<svg xmlns="http://www.w3.org/2000/svg" viewBox="0 0 32 32" aria-hidden="true" role="presentation" focusable="false" style="display: block; height: 24px; width: 24px; fill: currentcolor;"><path d="M25 2a1 1 0 0 1 .94.65l.03.1 1 4A1 1 0 0 1 26.11 8L26 8h-9v2h-2V8H5v20h3a5 5 0 0 1-.72-4.66l.1-.26 2.52-6.04-1.8-3.6a1 1 0 0 1 .78-1.43L9 12h14a1 1 0 0 1 .94 1.34l-.05.1L22.62 16H24a5 5 0 0 1 5 4.78V25h-2v-4a3 3 0 0 0-2.82-3H22.5l2.12 5.08A5 5 0 0 1 24 28h3v2H4a1 1 0 0 1-1-.88V3a1 1 0 0 1 .88-1H4zM12.65 22a6.64 6.64 0 0 0-2.91.63l-.5 1.22a3 3 0 0 0-.2.68l-.03.23L9 25a3 3 0 0 0 2.82 3h8.19l.23-.01a3 3 0 0 0 2.6-2.02c-1.7-.12-2.93-.67-4.84-1.9l-.37-.23c-2.14-1.4-3.18-1.84-4.98-1.84zm7.68-4h-8.66l-.92 2.19a9.06 9.06 0 0 1 1.9-.19c2.19 0 3.51.52 5.75 1.95l.38.25c1.74 1.13 2.74 1.62 4.03 1.76l-.04-.11zm1.05-4H10.62l1 2h8.76zm2.84-10H5v2h19.72z"></path></svg>
