<svg xmlns="http://www.w3.org/2000/svg" viewBox="0 0 32 32" aria-hidden="true" role="presentation" focusable="false" style="display: block; height: 24px; width: 24px; fill: currentcolor;"><path d="M26 1a5 5 0 0 1 5 5c0 6.39-1.6 13.19-4 14.7V31h-2V20.7c-2.36-1.48-3.94-8.07-4-14.36v-.56A5 5 0 0 1 26 1zm-9 0v18.12c2.32.55 4 3 4 5.88 0 3.27-2.18 6-5 6s-5-2.73-5-6c0-2.87 1.68-5.33 4-5.88V1zM2 1h1c4.47 0 6.93 6.37 7 18.5V21H4v10H2zm14 20c-1.6 0-3 1.75-3 4s1.4 4 3 4 3-1.75 3-4-1.4-4-3-4zM4 3.24V19h4l-.02-.96-.03-.95C7.67 9.16 6.24 4.62 4.22 3.36L4.1 3.3zm19 2.58v.49c.05 4.32 1.03 9.13 2 11.39V3.17a3 3 0 0 0-2 2.65zm4-2.65V17.7c.99-2.31 2-7.3 2-11.7a3 3 0 0 0-2-2.83z"></path></svg>
