<svg xmlns="http://www.w3.org/2000/svg" viewBox="0 0 32 32" aria-hidden="true" role="presentation" focusable="false" style="display: block; height: 24px; width: 24px; fill: currentcolor;"><path d="M26 2a1 1 0 0 1 .92.61l.04.12 2 7a1 1 0 0 1-.85 1.26L28 11h-3v5h6v2h-2v13h-2v-2.54a3.98 3.98 0 0 1-1.73.53L25 29H7a3.98 3.98 0 0 1-2-.54V31H3V18H1v-2h5v-4a1 1 0 0 1 .88-1h.36L6.09 8.4l1.82-.8L9.43 11H12a1 1 0 0 1 1 .88V16h10v-5h-3a1 1 0 0 1-.99-1.16l.03-.11 2-7a1 1 0 0 1 .84-.72L22 2h4zm1 16H5v7a2 2 0 0 0 1.7 1.98l.15.01L7 27h18a2 2 0 0 0 2-1.85V18zm-16-5H8v3h3v-3zm14.24-9h-2.49l-1.43 5h5.35l-1.43-5z"></path></svg>
