<svg xmlns="http://www.w3.org/2000/svg" viewBox="0 0 32 32" aria-hidden="true" role="presentation" focusable="false" style="display: block; height: 24px; width: 24px; fill: currentcolor;"><path d="M28 2a2 2 0 0 1 2 1.85V28a2 2 0 0 1-1.85 2H4a2 2 0 0 1-2-1.85V4a2 2 0 0 1 1.85-2H4zm0 10H4v16h24zm-2 2v4a3 3 0 0 1-2 2.83V24h2v2h-6v-2h2v-3.17a3 3 0 0 1-2-2.65V14zm-14 0a6 6 0 1 1 0 12 6 6 0 0 1 0-12zm0 2a4 4 0 1 0 0 8 4 4 0 0 0 0-8zm12 0h-2v2a1 1 0 0 0 .77.97l.11.02.12.01a1 1 0 0 0 1-.88V18zm4-12H4v6h24zm-6 2v2H10V6zM7 6a1 1 0 1 1 0 2 1 1 0 0 1 0-2z"></path></svg>
