<svg xmlns="http://www.w3.org/2000/svg" viewBox="0 0 32 32" aria-hidden="true" role="presentation" focusable="false" style="display: block; height: 24px; width: 24px; fill: currentcolor;"><path d="M26.29 2a3 3 0 0 1 2.96 2.58c.5 3.56.75 7.37.75 11.42s-.25 7.86-.75 11.42a3 3 0 0 1-2.79 2.57l-.17.01H5.7a3 3 0 0 1-2.96-2.58C2.25 23.86 2 20.05 2 16s.25-7.86.75-11.42a3 3 0 0 1 2.79-2.57L5.7 2zm0 2H5.72a1 1 0 0 0-1 .86A80.6 80.6 0 0 0 4 16c0 3.96.24 7.67.73 11.14a1 1 0 0 0 .87.85l.11.01h20.57a1 1 0 0 0 1-.86c.48-3.47.72-7.18.72-11.14 0-3.96-.24-7.67-.73-11.14a1 1 0 0 0-.87-.85zM16 7a9 9 0 1 1 0 18 9 9 0 0 1 0-18zm0 2a7 7 0 1 0 0 14 7 7 0 0 0 0-14zm-4.8 5.58c1.36.2 2.64.8 3.68 1.75l.46.45a8.97 8.97 0 0 0 4.62 2.28 5.02 5.02 0 0 1-2.01 1.55 10.98 10.98 0 0 1-4.26-2.65 4.96 4.96 0 0 0-2.66-1.38 4.68 4.68 0 0 1 .17-2zm3.09-3.28c1.34.55 2.58 1.36 3.64 2.42a4.97 4.97 0 0 0 3 1.44 4.99 4.99 0 0 1-.07 2 6.97 6.97 0 0 1-4.11-1.8l-.47-.45a8.96 8.96 0 0 0-4.07-2.17 5 5 0 0 1 2.08-1.44zM7 6a1 1 0 1 1 0 2 1 1 0 0 1 0-2z"></path></svg>
