<svg xmlns="http://www.w3.org/2000/svg" viewBox="0 0 32 32" aria-hidden="true" role="presentation" focusable="false" style="display: block; height: 24px; width: 24px; fill: currentcolor;"><path d="M11 1v7l1.9 20.82v.17a2.01 2.01 0 0 1-1.81 2 2 2 0 0 1-.18.01H2.92a2.01 2.01 0 0 1-1.82-2v-.09l1.9-21V1zm6 0h.15a2 2 0 0 1 1.84 1.84L19 3v7.12l-2 8V31h-2V17.96l.03-.16.03-.16L16.72 11H13V1zm11 0a2 2 0 0 1 2 1.85V29a2 2 0 0 1-1.85 2H21v-2h7v-2h-7v-2h7v-2h-7v-2h7v-2h-7v-2h7v-2h-7v-2h7v-2h-7V9h7V7h-7V5h7V3h-7V1zM9.09 9H4.9L3.1 29h7.81v-.06zM17 3h-2v6h2zM9 3H5v4h4z"></path></svg>
