<svg xmlns="http://www.w3.org/2000/svg" viewBox="0 0 32 32" aria-hidden="true" role="presentation" focusable="false" style="display: block; height: 24px; width: 24px; fill: currentcolor;"><path d="M7 28H5V15a11 11 0 0 1 8.06-10.6 3 3 0 0 1 4.63-1.88L20.35.24l1.3 1.52L19.04 4H23v2h-4.17A3 3 0 0 1 17 7.83v.24a7 7 0 0 1 5.98 6.45l.02.24V30a2 2 0 0 1-1.85 2H11a2 2 0 0 1-2-1.85V24H7zm9-18a5 5 0 0 0-4.98 4.57l-.02.22V30h10V14.82A5 5 0 0 0 16 10zm-2.65-3.6A9 9 0 0 0 7 14.73V22h2v-7.26a7 7 0 0 1 6-6.67v-.24a3.01 3.01 0 0 1-1.65-1.43zM16 4a1 1 0 1 0 0 2 1 1 0 0 0 0-2z"></path></svg>
