<svg xmlns="http://www.w3.org/2000/svg" viewBox="0 0 32 32" aria-hidden="true" role="presentation" focusable="false" style="display: block; height: 24px; width: 24px; fill: currentcolor;"><path d="M16 1a5 5 0 0 1 5 5 5 5 0 0 1 0 10 5 5 0 0 1-4 4.9v4.29A9.04 9.04 0 0 1 23.95 22a8.94 8.94 0 0 1 3.74.81l.31.15v2.33A6.96 6.96 0 0 0 23.95 24a6.88 6.88 0 0 0-6.93 5.87l-.02.15v.1a1 1 0 0 1-.88.87L16 31a1 1 0 0 1-.97-.77l-.02-.12A6.95 6.95 0 0 0 7.97 24 6.96 6.96 0 0 0 4 25.23v-2.31a9.16 9.16 0 0 1 11 2.3V20.9a5 5 0 0 1-4-4.68V16h-.22a5 5 0 0 1 0-10H11v-.22A5 5 0 0 1 16 1zm2.86 14.1a4.98 4.98 0 0 1-5.72 0l-.07.23a3 3 0 1 0 5.85 0zM11 8a3 3 0 1 0 .67 5.93l.23-.07A4.98 4.98 0 0 1 11 11c0-1.06.33-2.05.9-2.86l-.23-.07A3.01 3.01 0 0 0 11 8zm10 0c-.23 0-.45.03-.67.07l-.23.07c.57.8.9 1.8.9 2.86a4.98 4.98 0 0 1-.9 2.86l.23.07A3 3 0 1 0 21 8zm-5 0a3 3 0 1 0 0 6 3 3 0 0 0 0-6zm0-5a3 3 0 0 0-2.93 3.67l.07.23a4.98 4.98 0 0 1 5.72 0l.07-.23A3 3 0 0 0 16 3z"></path></svg>
