<svg xmlns="http://www.w3.org/2000/svg" viewBox="0 0 32 32" aria-hidden="true" role="presentation" focusable="false" style="display: block; height: 24px; width: 24px; fill: currentcolor;"><path d="M16 0a5 5 0 0 1 5 4.78v12.98l.26.21a7.98 7.98 0 0 1 2.72 5.43l.02.3v.3a8 8 0 1 1-13.25-6.04l.25-.2V5A5 5 0 0 1 15.56.02l.22-.01zm0 2a3 3 0 0 0-3 2.82V18.78l-.43.3a6 6 0 1 0 7.06.15l-.2-.16-.43-.3V11h-4V9h4V7h-4V5h4a3 3 0 0 0-3-3zm1 11v7.13A4 4 0 0 1 16 28a4 4 0 0 1-1-7.87V13zm-1 9a2 2 0 1 0 0 4 2 2 0 0 0 0-4z"></path></svg>
