<svg xmlns="http://www.w3.org/2000/svg" viewBox="0 0 32 32" aria-hidden="true" role="presentation" focusable="false" style="display: block; height: 24px; width: 24px; fill: currentcolor;"><path d="M9.5 2a4.5 4.5 0 0 1 3.53 7.3c.6.21 1.17.54 1.66.98l.19.19L17.4 13H31v2h-2v14a2 2 0 0 1-1.85 2H5a2 2 0 0 1-2-1.85V15H1v-2h2.1a5 5 0 0 1 2.96-3.6A4.5 4.5 0 0 1 9.5 2zm7.08 13H5v14h22V15h-7.59l3.3 3.3-1.42 1.4zM9.5 4a2.5 2.5 0 0 0-1 4.8V11H8a3 3 0 0 0-2.83 2h9.41l-1.12-1.12a3 3 0 0 0-1.92-.87l-.2-.01h-.84V8.8a2.5 2.5 0 0 0-1-4.8zm15.49-3a6.96 6.96 0 0 1-1.8 4.07l-.45.46A8.97 8.97 0 0 0 20.35 11h-2a10.97 10.97 0 0 1 3.2-7.12A4.96 4.96 0 0 0 22.97 1zm2 0h2a10.96 10.96 0 0 1-3.2 7.12A4.97 4.97 0 0 0 24.38 11h-2a6.97 6.97 0 0 1 1.8-4.06l.44-.47A8.96 8.96 0 0 0 26.99 1z"></path></svg>
