<svg viewBox="0 0 32 32" xmlns="http://www.w3.org/2000/svg" aria-hidden="true" role="presentation" focusable="false" style="display: block; height: 24px; width: 24px; fill: currentcolor;"><path d="m4 2v2h2l.001 2h-1.001c-1.1045695 0-2 .8954305-2 2v16.3846154c0 3.0720253 2.20424471 5.6153846 5 5.6153846h16c2.7957553 0 5-2.5433593 5-5.6153846v-9.3846154h-2l.0006267 2.2441864c-.2957862.1662973-.6415947.2556548-1.0003023.2558136-.3770726-.0001668-.7397707-.0987428-1.0448826-.2813581l-.147435-.0980881-.0698054-.0542225-.0669618-.0575717c-.1674894-.1516722-.3473184-.2870627-.5370123-.4056091-.1267551-.0791722-.2576057-.1507019-.3921007-.2145789l-.2041007-.0899647c-.4828805-.1966888-1.005996-.2986069-1.537908-.2986069-.1521835 0-.3034078.0083174-.453179.0247859l-.2234033.0307902c-.658505.1092272-1.2810008.3778141-1.8035225.7911936l-.1911344.1617761c-.3493432.3161496-.8261929.4912319-1.3293208.4914542-.5021258-.0002223-.9789755-.1753046-1.3283187-.4914542-.7261733-.6571745-1.6832835-1.0085458-2.6712392-1.0085458-.9878365 0-1.9453342.3515135-2.6706493 1.008332-.3497754.3163381-.8267557.4914457-1.3290263.491668-.502832-.0002223-.97980321-.1753492-1.32908476-.4912404-.72578749-.6572461-1.68328523-1.0087596-2.67112174-1.0087596-.34005846 0-.67646247.0416292-1.00105227.1230294l.00093437-8.1230294h4v2h2v-2c0-1.1045695-.8954305-2-2-2h-.999l-.001-2.001 2 .001v-2zm22.0003242 17.4999999c.3396204-.0001501.6755904-.0417799.9997827-.1230407v5.0076562c0 2.0259877-1.3775842 3.6153845-3.0001069 3.6153845h-16c-1.62252271 0-3-1.5893968-3-3.6153845l-.00148637-6.1285018c.29592169-.1666518.64208407-.2561137 1.00160427-.2561137.5026133 0 .97950576.1750753 1.32911493.4916681.72598912.6565871 1.68280283 1.0078952 2.67109137 1.0083319.9877-.0004367 1.9445263-.3517037 2.6710333-1.0087595.3491367-.3161652.8260292-.4912405 1.3286425-.4912405.5028479 0 .9795643.1750107 1.3292324.4914543.725724.6567679 1.6826278 1.008109 2.6713278 1.0085457.987581-.0004368 1.9447946-.351846 2.6704432-1.0085457.3496467-.3164242.826354-.4914543 1.3288787-.4914543.5028479 0 .9795643.1750107 1.3292324.4914543.6698295.6061843 1.5369688.9522395 2.4431705 1.0022354zm-8.0059505-15.50004556-1.999421.00109132c.0017379 1.66765868-.3914074 2.67484348-1.6096005 4.57626989l-.4357339.67326735c-1.1985316 1.8730246-1.7578573 3.1084741-1.9072678 4.7489216l2.013841.0007885c.1565646-1.2622433.6616712-2.2705308 1.7787146-3.9820993l.243287-.37580218c1.405662-2.19695557 1.9189882-3.50550246 1.9161806-5.64243718zm3.0005862.00002214c-.0019426 1.6881104-.3993036 2.69826243-1.6537336 4.66840333l-.3870791.60284703c-1.2033592 1.89238746-1.7606515 3.11545826-1.9109072 4.72843796h2.0148819c.1395749-1.0872185.5479182-1.9947141 1.4095297-3.3786139l.7616667-1.19781229c1.2938583-2.07979737 1.7634695-3.36210955 1.7656416-5.42219097zm5 0c-.0019426 1.6881104-.3993036 2.69826243-1.6537336 4.66840333l-.3870791.60284703c-1.2033592 1.89238746-1.7606515 3.11545826-1.9109072 4.72843796h2.0148819c.1395749-1.0872185.5479182-1.9947141 1.4095297-3.3786139l.7616667-1.19781229c1.2938583-2.07979737 1.7634695-3.36210955 1.7656416-5.42219097z"></path></svg>
