<svg xmlns="http://www.w3.org/2000/svg" viewBox="0 0 32 32" aria-hidden="true" role="presentation" focusable="false" style="display: block; height: 24px; width: 24px; fill: currentcolor;"><path d="M12 28a1 1 0 1 1 0 2 1 1 0 0 1 0-2zm4 0a1 1 0 1 1 0 2 1 1 0 0 1 0-2zm4 0a1 1 0 1 1 0 2 1 1 0 0 1 0-2zm-6-3a1 1 0 1 1 0 2 1 1 0 0 1 0-2zm4 0a1 1 0 1 1 0 2 1 1 0 0 1 0-2zM16.03 3h.3a12.5 12.5 0 0 1 11.82 9.48l.07.3 1.73 7.79.03.14A2 2 0 0 1 28.15 23H2.1a2 2 0 0 1-1.85-1.84v-7.38a5 5 0 0 1 4.77-4.77L5.25 9h9V5h-14V3zm11.53 16H2.25v2H28zM16.24 5v6H5.07a3 3 0 0 0-2.82 2.82V17H27.1l-.84-3.78-.07-.28a10.5 10.5 0 0 0-9.6-7.92L16.32 5z"></path></svg>
