<svg xmlns="http://www.w3.org/2000/svg" viewBox="0 0 32 32" aria-hidden="true" role="presentation" focusable="false" style="display: block; height: 24px; width: 24px; fill: currentcolor;"><path d="M29 3a2 2 0 0 1 2 1.85V27a2 2 0 0 1-1.85 2H3a2 2 0 0 1-2-1.85V5a2 2 0 0 1 1.85-2H3zm0 2H3v22h26zm-6 2v18H5V7zm-2 2H7v14h3a4.97 4.97 0 0 1-1-2.72V17h10v3a4.98 4.98 0 0 1-1 3h3zm-4 10h-6v1a3 3 0 0 0 2.65 2.98l.17.01.18.01a3 3 0 0 0 3-2.82V20zm9-8a1 1 0 1 1 0 2 1 1 0 0 1 0-2zm0-4a1 1 0 1 1 0 2 1 1 0 0 1 0-2z"></path></svg>
