<svg xmlns="http://www.w3.org/2000/svg" viewBox="0 0 32 32" aria-hidden="true" role="presentation" focusable="false" style="display: block; height: 24px; width: 24px; fill: currentcolor;"><path d="M24 26c.99 0 1.95.35 2.67 1 .3.29.71.45 1.14.5H28v2h-.23a3.96 3.96 0 0 1-2.44-1A1.98 1.98 0 0 0 24 28c-.5 0-.98.17-1.33.5a3.98 3.98 0 0 1-2.67 1 3.98 3.98 0 0 1-2.67-1A1.98 1.98 0 0 0 16 28c-.5 0-.98.17-1.33.5a3.98 3.98 0 0 1-2.67 1 3.98 3.98 0 0 1-2.67-1A1.98 1.98 0 0 0 8 28c-.5 0-.98.17-1.33.5a3.96 3.96 0 0 1-2.44 1H4v-2h.19a1.95 1.95 0 0 0 1.14-.5A3.98 3.98 0 0 1 8 26c.99 0 1.95.35 2.67 1 .35.33.83.5 1.33.5.5 0 .98-.17 1.33-.5A3.97 3.97 0 0 1 16 26c.99 0 1.95.35 2.67 1 .35.33.83.5 1.33.5.5 0 .98-.17 1.33-.5A3.98 3.98 0 0 1 24 26zm0-5c.99 0 1.95.35 2.67 1 .3.29.71.45 1.14.5H28v2h-.23a3.96 3.96 0 0 1-2.44-1A1.98 1.98 0 0 0 24 23c-.5 0-.98.17-1.33.5a3.98 3.98 0 0 1-2.67 1 3.98 3.98 0 0 1-2.67-1A1.98 1.98 0 0 0 16 23c-.5 0-.98.17-1.33.5a3.98 3.98 0 0 1-2.67 1 3.98 3.98 0 0 1-2.67-1A1.98 1.98 0 0 0 8 23c-.5 0-.98.17-1.33.5a3.96 3.96 0 0 1-2.44 1H4v-2h.19a1.95 1.95 0 0 0 1.14-.5A3.98 3.98 0 0 1 8 21c.99 0 1.95.35 2.67 1 .35.33.83.5 1.33.5.5 0 .98-.17 1.33-.5A3.97 3.97 0 0 1 16 21c.99 0 1.95.35 2.67 1 .35.33.83.5 1.33.5.5 0 .98-.17 1.33-.5A3.98 3.98 0 0 1 24 21zM20 3a4 4 0 0 1 4 3.8V9h4v2h-4v5a4 4 0 0 1 2.5.86l.17.15c.3.27.71.44 1.14.48l.19.01v2h-.23a3.96 3.96 0 0 1-2.44-1A1.98 1.98 0 0 0 24 18c-.5 0-.98.17-1.33.5a3.98 3.98 0 0 1-2.67 1 3.98 3.98 0 0 1-2.67-1A1.98 1.98 0 0 0 16 18c-.5 0-.98.17-1.33.5a3.98 3.98 0 0 1-2.67 1 3.98 3.98 0 0 1-2.67-1A1.98 1.98 0 0 0 8 18c-.5 0-.98.17-1.33.5a3.96 3.96 0 0 1-2.44 1H4v-2h.19a1.95 1.95 0 0 0 1.14-.5A3.98 3.98 0 0 1 8 16c.99 0 1.95.35 2.67 1 .35.33.83.5 1.33.5.5 0 .98-.17 1.33-.5a3.96 3.96 0 0 1 2.44-1H16v-5H4V9h12V7a2 2 0 0 0-4-.15V7h-2a4 4 0 0 1 7-2.65A3.98 3.98 0 0 1 20 3zm-2 13.52.46.31.21.18c.35.31.83.49 1.33.49a2 2 0 0 0 1.2-.38l.13-.11c.2-.19.43-.35.67-.49V11h-4zM20 5a2 2 0 0 0-2 1.85V9h4V7a2 2 0 0 0-2-2z"></path></svg>
