<svg xmlns="http://www.w3.org/2000/svg" viewBox="0 0 32 32" aria-hidden="true" role="presentation" focusable="false" style="display: block; height: 24px; width: 24px; fill: currentcolor;"><path d="M16 1a15 15 0 1 1 0 30 15 15 0 0 1 0-30zm0 2a13 13 0 1 0 0 26 13 13 0 0 0 0-26zm-4.9 14a5 5 0 0 0 3.9 3.9v2.03A7 7 0 0 1 9.07 17zm9.8 0h2.03A7 7 0 0 1 17 22.93V20.9a5 5 0 0 0 3.9-3.9zM16 13a3 3 0 1 1 0 6 3 3 0 0 1 0-6zm0 2a1 1 0 1 0 0 2 1 1 0 0 0 0-2zm1-5.93A7 7 0 0 1 22.93 15H20.9a5 5 0 0 0-3.9-3.9zm-2 0v2.03a5 5 0 0 0-3.9 3.9H9.07A7 7 0 0 1 15 9.07zM23 8a1 1 0 1 1 0 2 1 1 0 0 1 0-2z"></path></svg>
