<svg xmlns="http://www.w3.org/2000/svg" viewBox="0 0 32 32" aria-hidden="true" role="presentation" focusable="false" style="display: block; height: 24px; width: 24px; fill: currentcolor;"><path d="M26.29 2a3 3 0 0 1 2.96 2.58c.5 3.56.75 7.37.75 11.42s-.25 7.86-.75 11.42a3 3 0 0 1-2.79 2.57l-.17.01H5.7a3 3 0 0 1-2.96-2.58C2.25 23.86 2 20.05 2 16s.25-7.86.75-11.42a3 3 0 0 1 2.79-2.57L5.7 2zm0 2H5.72a1 1 0 0 0-1 .86A80.6 80.6 0 0 0 4 16c0 3.96.24 7.67.73 11.14a1 1 0 0 0 .87.85l.11.01h20.57a1 1 0 0 0 1-.86c.48-3.47.72-7.18.72-11.14 0-3.96-.24-7.67-.73-11.14A1 1 0 0 0 26.3 4zM16 7a9 9 0 1 1 0 18 9 9 0 0 1 0-18zm-5.84 7.5c-.34 0-.68.02-1.02.07a7 7 0 0 0 13.1 4.58 9.09 9.09 0 0 1-6.9-2.37l-.23-.23a6.97 6.97 0 0 0-4.95-2.05zM16 9a7 7 0 0 0-6.07 3.5h.23c2.26 0 4.44.84 6.12 2.4l.24.24a6.98 6.98 0 0 0 6.4 1.9A7 7 0 0 0 16 9zM7 6a1 1 0 1 1 0 2 1 1 0 0 1 0-2z"></path></svg>
