<svg xmlns="http://www.w3.org/2000/svg" viewBox="0 0 32 32" aria-hidden="true" role="presentation" focusable="false" style="display: block; height: 24px; width: 24px; fill: currentcolor;"><path d="M16 20.33a3.67 3.67 0 1 1 0 7.34 3.67 3.67 0 0 1 0-7.34zm0 2a1.67 1.67 0 1 0 0 3.34 1.67 1.67 0 0 0 0-3.34zM16 15a9 9 0 0 1 8.04 4.96l-1.51 1.51a7 7 0 0 0-13.06 0l-1.51-1.51A9 9 0 0 1 16 15zm0-5.33c4.98 0 9.37 2.54 11.94 6.4l-1.45 1.44a12.33 12.33 0 0 0-20.98 0l-1.45-1.45A14.32 14.32 0 0 1 16 9.66zm0-5.34c6.45 0 12.18 3.1 15.76 7.9l-1.43 1.44a17.64 17.64 0 0 0-28.66 0L.24 12.24c3.58-4.8 9.3-7.9 15.76-7.9z"></path></svg>
